<svg ViewBox="0 0 400 400" height="400" style="style=&quot;outline: 5px solid #800000;&quot;" width="400" xmlns="http://www.w3.org/2000/svg">
<rect fill="#fffff" height="400" width="400" x="0" y="0"/>
<path d="M200,200 L200,320 L200,360 L200,360 L200,200 L200,200 L200,200 L520,200 L200,200 L200,200 L120,200 L120,200 L120,200 L280,200 L520,200 L160,200 L160,200 L160,80 L160,-120 L160,480 L160,160 L160,-200 L200,200 L200,200 L200,200 L200,200 L120,200 L40,200 L-120,200 L200,200 L200,200 L200,200 L200,200 L200,480 L200,-40 L200,200 L200,200 L200,-120 L200,400 L200,400 L200,400" fill="none" stroke="#2f2f2f" stroke-opacity="0.9" stroke-width="5"/>
<rect fill="#fffff" fill-opacity="0.0" height="400" stroke="#ccccc" stroke-width="15" width="400" x="0" y="0"/>
</svg>